<svg viewBox="0 0 500 500" fill="none" xmlns="http://www.w3.org/2000/svg">
<rect width="500" height="500" fill="#0067DC"/>
<path d="M260.346 83.7577C258.607 84.4199 256.372 85.5788 255.462 86.4894C251.903 89.6349 251.406 92.4494 250.661 117.283C249.833 143.027 248.923 149.483 245.115 156.436C241.141 163.804 235.264 166.949 225.248 167.032C211.673 167.115 191.806 160.575 175.085 150.642C104.31 108.343 92.0589 101.389 88.4166 100.975C81.4633 100.396 76 106.19 76 114.303C76 118.855 77.3244 121.753 80.7183 124.981C81.96 126.14 98.8466 136.57 118.217 148.076C174.837 181.601 180.052 185.16 197.021 200.557C205.878 208.504 207.616 210.656 205.713 211.318C199.835 213.222 192.551 213.719 167.055 214.133C140.484 214.629 138.332 214.712 135.683 216.285C130.882 219.099 129.392 221.914 129.392 227.874C129.392 233.585 130.633 236.069 135.103 239.38C137.255 241.035 138.911 241.118 161.923 241.697C192.303 242.36 199.835 243.684 206.623 249.396C214.901 256.349 215.646 270.918 208.693 292.854C205.547 302.87 199.339 314.542 173.512 359.242C160.93 380.929 150.252 400.051 149.672 401.624C147.272 409.074 153.811 417.021 162.254 417.021C165.648 417.021 171.029 414.537 173.429 411.971C174.423 410.895 182.949 396.574 192.303 380.184C227.897 318.184 231.705 312.141 246.025 295.751L248.26 293.268L248.012 331.925C247.764 369.837 247.764 370.582 249.502 372.817C252.565 377.039 255.296 378.446 260.842 378.777C265.147 379.026 266.389 378.777 268.789 377.122C274.915 372.983 274.832 373.893 275.494 333.581C276.156 300.138 276.322 296.91 277.977 290.371C278.971 286.48 280.544 282.01 281.371 280.272C283.275 276.547 287.911 272.656 291.967 271.415C297.347 269.842 307.612 270.339 316.552 272.574C332.859 276.712 339.978 280.024 366.963 296.165C377.476 302.373 387.161 308.168 388.651 308.913C392.542 310.9 398.916 310.651 401.73 308.416C404.462 306.264 407.111 300.883 407.111 297.407C407.111 294.013 404.544 288.798 401.647 286.149C400.323 284.99 389.727 278.368 378.138 271.415C358.768 259.909 335.177 243.684 336.253 242.608C336.501 242.36 354.298 242.111 375.821 242.029C413.733 241.946 415.057 241.863 417.872 240.207C422.507 237.476 424.494 233.834 424.494 227.956C424.494 221.582 422.507 218.023 417.623 215.871C414.395 214.381 411.912 214.215 380.125 214.215C345.524 214.215 341.385 213.967 330.707 210.821C316.717 206.683 312.579 194.431 318.042 172.826C321.932 157.099 325.657 148.904 339.233 125.643C353.057 102.134 355.209 97.6644 354.712 93.8566C353.14 82.0194 336.005 79.4533 328.968 89.966C327.892 91.6216 322.098 101.472 316.055 111.985C310.012 122.415 302.645 134.583 299.665 138.888C292.132 149.814 281.951 162.314 281.289 161.486C279.136 159.085 278.474 149.566 278.309 121.835C278.143 89.8005 278.143 89.6349 272.845 85.6616C269.369 83.0127 264.402 82.2677 260.346 83.7577Z" fill="white"/>
</svg>
